<svg width="48" height="30" viewBox="0 0 48 30" fill="none" xmlns="http://www.w3.org/2000/svg">
<path fill-rule="evenodd" clip-rule="evenodd" d="M5.75281 15.2445H32.7072L37.8679 11.1348L41.6724 15.2445H48V29.8315H5.75281V15.2445Z" fill="#809EB0"/>
<path fill-rule="evenodd" clip-rule="evenodd" d="M0.179779 11.198L2.40927 0.168549L6.65169 16.1685L0.179779 11.198Z" fill="#809EB0"/>
<path fill-rule="evenodd" clip-rule="evenodd" d="M7.37079 15.953L0 14.3708V18.5056L7.37079 15.953Z" fill="#809EB0"/>
<path fill-rule="evenodd" clip-rule="evenodd" d="M29.8427 22.1081C29.8427 22.1081 32.6862 26.2426 35.9213 24.771C39.1563 23.2994 37.615 18.3259 37.615 18.3259L29.8427 22.1081Z" fill="white"/>
<path fill-rule="evenodd" clip-rule="evenodd" d="M23.0112 21.9214H16C16 21.9214 16.9517 25.3887 19.5056 25.3363C22.0595 25.2839 23.0112 21.9214 23.0112 21.9214Z" fill="white"/>
<path fill-rule="evenodd" clip-rule="evenodd" d="M11.6854 18.3259L24.9888 20.5813V21.5618H13.4826L11.6854 18.3259Z" fill="black" fill-opacity="0.2"/>
<path fill-rule="evenodd" clip-rule="evenodd" d="M29.3034 21.7416L37.6828 14.0112L42.6067 18.9552L37.6828 17.8764L29.3034 21.7416Z" fill="black" fill-opacity="0.2"/>
<path fill-rule="evenodd" clip-rule="evenodd" d="M0.179779 11.1576L1.11693 6.55145L5.86675 15.5383L0.179779 11.1576Z" fill="black" fill-opacity="0.2"/>
</svg>
